<?xml version="1.0" encoding="UTF-8"?>
<!-- Generator: Adobe Illustrator 23.0.2, SVG Export Plug-In . SVG Version: 6.00 Build 0)  -->
<svg version="1.1" id="Livello_1" xmlns="http://www.w3.org/2000/svg" xmlns:xlink="http://www.w3.org/1999/xlink" x="0px" y="0px" viewBox="0 0 22.1 31.8" style="enable-background:new 0 0 22.1 31.8;" xml:space="preserve">
<style type="text/css">
	.st0{fill:#FFFFFF;}
	.st1{fill:#11110E;}
</style>
<path class="st0" d="M21.6,5.8C21.6,5.7,21.6,5.7,21.6,5.8c0-0.1,0-0.1,0-0.2c-0.3-0.3-0.6-0.6-0.9-1C20.4,4.2,19,2.4,18,1.2  c-0.5-0.6-1.2-1-2-1H1c-0.3,0-0.5,0.2-0.5,0.5v30.2c0,0.3,0.2,0.5,0.5,0.5h20.3c0.3,0,0.5-0.2,0.5-0.5V6.1C21.7,6,21.7,5.9,21.6,5.8  z"/>
<g>
	<path d="M20.8,31.8H1c-0.5,0-1-0.4-1-1V1.2c0-0.5,0.4-1,1-1h15.1c0.4,0,0.7,0.3,0.7,0.7V5c0,0.3,0.2,0.5,0.5,0.5h3.9   c0.4,0,0.7,0.3,0.7,0.7V30c0,0.1-0.1,0.3-0.3,0.3s-0.3-0.1-0.3-0.3V6.1C21.3,6,21.2,6,21.2,6h-3.9c-0.5,0-1-0.4-1-1V0.9   c0-0.1-0.1-0.1-0.1-0.1H1C0.7,0.8,0.5,1,0.5,1.3v29.5c0,0.3,0.2,0.5,0.5,0.5h19.8c0.3,0,0.5-0.2,0.5-0.5V30c0-0.1,0.1-0.3,0.3-0.3   s0.3,0.1,0.3,0.3v0.8C21.8,31.4,21.3,31.8,20.8,31.8z"/>
	<path class="st1" d="M21.4,6.1c-0.1,0-0.1,0-0.2-0.1l-3.7-4.6c-0.1-0.1-0.1-0.3,0-0.4s0.3-0.1,0.4,0l3.7,4.6c0.1,0.1,0.1,0.3,0,0.4   C21.6,6,21.5,6.1,21.4,6.1z"/>
	<path d="M9.2,8.3H2.6C2.2,8.3,2,8.1,2,7.7V3.3C2,3.1,2,3,2.1,2.9c0-0.1,0.2-0.2,0.3-0.1C2.5,2.9,2.5,3,2.5,3.2c0,0,0,0,0,0.1v4.4   c0,0.1,0,0.1,0,0.1s0,0,0.1,0h6.6c0.1,0,0.1,0,0.1,0s0,0,0-0.1V3.3c0-0.1,0-0.1,0-0.1c-0.1-0.1-0.1-0.3,0-0.4s0.3-0.1,0.4,0   c0.2,0.1,0.2,0.4,0.2,0.5v4.4C9.8,8.1,9.6,8.3,9.2,8.3z"/>
	<path d="M8.6,7.5H3.4C3.1,7.5,2.9,7.3,2.9,7V5.7C2.9,5.5,3,5.4,3.4,5c0.2-0.1,0.3-0.2,0.4-0.3s0.3-0.2,0.5-0.2l0,0   c0.2,0,0.3,0.1,0.5,0.2L6,6.1c0.1,0.1,0.2,0.1,0.3,0l0.5-0.4C7,5.4,7.3,5.4,7.6,5.6c0.2,0.1,0.5,0.3,0.7,0.5C9,6.4,9.1,6.5,9.1,6.7   v0.4C9.1,7.3,8.9,7.5,8.6,7.5z M3.4,7h5.1V6.8c0-0.1-0.3-0.2-0.4-0.3C7.8,6.3,7.5,6.1,7.3,6C7.2,6,7.2,6,7.1,6l0,0L6.6,6.4   c-0.3,0.3-0.7,0.3-1,0L4.3,5.1H4.2l0,0H4.1c0,0.1-0.2,0.2-0.3,0.3C3.7,5.5,3.5,5.7,3.4,5.8V7z M3.4,5.8L3.4,5.8L3.4,5.8z M6.9,5.8   L6.9,5.8L6.9,5.8z"/>
	<path d="M19.6,15.1H2.4c-0.1,0-0.3-0.1-0.3-0.3c0-0.1,0.1-0.3,0.3-0.3h17.2c0.1,0,0.3,0.1,0.3,0.3S19.8,15.1,19.6,15.1z"/>
	<path d="M19.6,13.4H2.4c-0.1,0-0.3-0.1-0.3-0.3c0-0.1,0.1-0.3,0.3-0.3h17.2c0.1,0,0.3,0.1,0.3,0.3S19.8,13.4,19.6,13.4z"/>
	<path d="M19.6,11.7H2.4c-0.1,0-0.3-0.1-0.3-0.3c0-0.1,0.1-0.3,0.3-0.3h17.2c0.1,0,0.3,0.1,0.3,0.3C19.9,11.6,19.8,11.7,19.6,11.7z"/>
	<path d="M19.6,8.3H11c-0.1,0-0.3-0.1-0.3-0.3c0.1-0.1,0.2-0.2,0.3-0.2h8.6c0.1,0,0.3,0.1,0.3,0.3C19.9,8.2,19.8,8.3,19.6,8.3z"/>
	<path d="M14.9,6.6H11c-0.1,0-0.3-0.1-0.3-0.3S10.8,6,11,6h3.9c0.1,0,0.3,0.1,0.3,0.3S15.1,6.6,14.9,6.6z"/>
	<g>
		<path d="M5.1,20.8c0.4,0,0.8,0.1,1.1,0.2c0.3,0.1,0.6,0.2,0.8,0.4c0.2,0.2,0.4,0.4,0.5,0.7s0.2,0.5,0.2,0.8s-0.1,0.6-0.2,0.9    S7.3,24.2,7,24.4c-0.2,0.2-0.5,0.3-0.8,0.4C5.9,24.9,5.6,25,5.1,25H4.2v2.3H3v-6.5H5.1z M5.1,24c0.2,0,0.4,0,0.6-0.1    s0.3-0.1,0.4-0.2s0.2-0.2,0.2-0.4c0.1-0.1,0.1-0.3,0.1-0.5s0-0.3-0.1-0.5c-0.1-0.1-0.1-0.3-0.2-0.4s-0.2-0.2-0.4-0.2    s-0.4-0.1-0.6-0.1H4.2V24H5.1z"/>
		<path d="M14.4,24c0,0.5-0.1,0.9-0.2,1.3c-0.2,0.4-0.4,0.7-0.7,1s-0.6,0.5-1,0.7s-0.9,0.2-1.3,0.2H8.6v-6.5h2.5    c0.5,0,0.9,0.1,1.3,0.2c0.4,0.2,0.8,0.4,1,0.7c0.3,0.3,0.5,0.6,0.7,1C14.3,23.1,14.4,23.5,14.4,24z M13.1,24c0-0.4,0-0.7-0.1-1    s-0.2-0.5-0.4-0.7S12.2,22,12,21.8c-0.3-0.1-0.5-0.2-0.9-0.2H9.8v4.6h1.3c0.3,0,0.6-0.1,0.9-0.2c0.3-0.1,0.5-0.3,0.6-0.5    c0.2-0.2,0.3-0.4,0.4-0.7C13.1,24.7,13.1,24.4,13.1,24z"/>
		<path d="M16.7,21.7v1.9h2.4v1h-2.4v2.7h-1.2v-6.5h4.1v1h-2.9V21.7z"/>
	</g>
</g>
</svg>