<svg viewBox="0 0 128 128" fill="none" xmlns="http://www.w3.org/2000/svg" x="0px" y="0px">
<path d="M13.6426 78.9282H116.14V92.0253C116.14 92.5038 116.046 92.9777 115.863 93.4199C115.679 93.862 115.411 94.2638 115.073 94.6022C114.734 94.9406 114.332 95.209 113.89 95.3922C113.448 95.5753 112.974 95.6696 112.496 95.6696H17.2869C16.3204 95.6696 15.3934 95.2856 14.71 94.6022C14.0265 93.9187 13.6426 92.9918 13.6426 92.0253V78.9282Z" fill="#D5D3D3"/>
<path d="M17.2409 30.8511H111.675C112.913 30.8511 114.101 31.343 114.977 32.2187C115.852 33.0944 116.344 34.2822 116.344 35.5206V78.1083H12.5713V35.5206C12.5713 34.2822 13.0633 33.0944 13.939 32.2187C14.8147 31.343 16.0024 30.8511 17.2409 30.8511Z" fill="url(#paint0_linear_3874_32797)"/>
<path d="M79.5418 108.245H51.0678C51.0111 108.246 50.955 108.234 50.9027 108.213C50.8503 108.191 50.8027 108.16 50.7626 108.12C50.7225 108.08 50.6906 108.032 50.6689 107.98C50.6471 107.928 50.6358 107.872 50.6357 107.815V106.187C50.6359 106.078 50.6776 105.973 50.7524 105.893C50.8271 105.813 50.9293 105.765 51.0383 105.758C55.9607 105.431 58.0373 104.093 58.1666 96.6759C58.1688 96.5629 58.2153 96.4552 58.2961 96.376C58.3769 96.2969 58.4855 96.2527 58.5986 96.2529H58.606C58.6625 96.254 58.7183 96.2662 58.7701 96.2888C58.8219 96.3114 58.8688 96.344 58.908 96.3847C58.9472 96.4255 58.978 96.4735 58.9986 96.5262C59.0192 96.5788 59.0293 96.635 59.0282 96.6915C58.8932 104.48 56.4917 106.175 51.5006 106.585V107.382H79.1163V106.587C74.8239 106.253 72.5051 105.058 71.8096 99.97C71.7942 99.8568 71.8245 99.742 71.8937 99.6511C71.9629 99.5601 72.0654 99.5003 72.1786 99.4848C72.2349 99.4763 72.2923 99.4792 72.3474 99.4932C72.4025 99.5073 72.4543 99.5323 72.4996 99.5667C72.5449 99.6011 72.5829 99.6442 72.6112 99.6935C72.6396 99.7429 72.6577 99.7974 72.6646 99.8539C73.3078 104.566 75.3165 105.483 79.5745 105.756C79.6835 105.763 79.7858 105.811 79.8605 105.891C79.9352 105.971 79.9769 106.076 79.9771 106.185V107.813C79.9771 107.87 79.9658 107.927 79.9439 107.979C79.9219 108.032 79.8898 108.08 79.8494 108.12C79.8089 108.16 79.7609 108.192 79.7081 108.213C79.6553 108.235 79.5988 108.246 79.5418 108.245Z" fill="black" stroke="black" stroke-miterlimit="10" stroke-linecap="round"/>
<path d="M117 74.7846V37.566C117 34.9134 116.492 33.1674 115.282 32.1021" stroke="black" stroke-width="2" stroke-miterlimit="5" stroke-linecap="round"/>
<path d="M13.6432 32.7734C12.87 33.8551 12.5361 35.4121 12.5361 37.5665V88.8427C12.5361 93.8706 14.3362 95.6698 19.3642 95.6698H110.173C115.201 95.6698 117.001 93.8698 117.001 88.8427V74.7843" stroke="black" stroke-width="2" stroke-miterlimit="5" stroke-linecap="round"/>
<path d="M41.8385 30.7378H19.3645C16.4901 30.7378 14.6745 31.3302 13.6436 32.7735" stroke="black" stroke-width="2" stroke-miterlimit="5"/>
<path d="M115.281 32.1017C114.196 31.1469 112.548 30.7378 110.172 30.7378H85.7686" stroke="black" stroke-width="2" stroke-miterlimit="5"/>
<path d="M13.1055 78.5454H116.4" stroke="black" stroke-width="2" stroke-miterlimit="5" stroke-linecap="round"/>
<path d="M65.3735 88.994C66.4173 88.994 67.2636 88.1478 67.2636 87.1039C67.2636 86.0601 66.4173 85.2139 65.3735 85.2139C64.3296 85.2139 63.4834 86.0601 63.4834 87.1039C63.4834 88.1478 64.3296 88.994 65.3735 88.994Z" fill="black"/>
<path d="M41.6387 77.6601V27.7495C41.6387 20.7513 49.7243 18.9316 57.8091 18.9316C65.8939 18.9316 96.8283 19.0413 96.8283 19.0413C96.8283 19.0413 85.2972 18.885 85.2972 28.2166V77.6601H41.6387Z" fill="white"/>
<path d="M46.6836 49.1733H78.2619" stroke="black" stroke-width="2" stroke-miterlimit="5" stroke-linecap="round"/>
<path d="M46.6836 44.9834H71.8209" stroke="black" stroke-width="2" stroke-miterlimit="5" stroke-linecap="round"/>
<path d="M73.209 34.6206H79.515" stroke="black" stroke-width="2" stroke-miterlimit="5" stroke-linecap="round"/>
<path d="M71.0293 30.4302H79.515" stroke="black" stroke-width="2" stroke-miterlimit="5" stroke-linecap="round"/>
<path d="M46.6836 53.7153H71.8209" stroke="black" stroke-width="2" stroke-miterlimit="5" stroke-linecap="round"/>
<path d="M58.4639 65.4292H64.6758" stroke="black" stroke-width="2" stroke-miterlimit="5" stroke-linecap="round"/>
<path d="M58.4639 68.6426H64.6758" stroke="black" stroke-width="2" stroke-miterlimit="5" stroke-linecap="round"/>
<path d="M68.347 71.76C67.496 72.1204 66.5667 72.2564 65.6481 72.1549C64.7296 72.0534 63.8524 71.7179 63.1005 71.1805C62.3487 70.643 61.7474 69.9216 61.3541 69.0853C60.9609 68.249 60.7888 67.3257 60.8545 66.4039C60.9201 65.4821 61.2212 64.5925 61.729 63.8203C62.2367 63.0482 62.9342 62.4192 63.7546 61.9937C64.575 61.5682 65.4908 61.3603 66.4145 61.39C67.3382 61.4197 68.2388 61.6859 69.0302 62.1632" stroke="black" stroke-width="2" stroke-miterlimit="10" stroke-linecap="round"/>
<path d="M49.0228 35.6408C50.6578 35.6408 51.9831 34.3154 51.9831 32.6805C51.9831 31.0456 50.6578 29.7202 49.0228 29.7202C47.3879 29.7202 46.0625 31.0456 46.0625 32.6805C46.0625 34.3154 47.3879 35.6408 49.0228 35.6408Z" fill="black"/>
<path d="M85.7686 28.9146V78.9283" stroke="black" stroke-width="2" stroke-miterlimit="5"/>
<path d="M41.8379 78.9284V28.9147C41.8379 26.2791 42.8847 23.7514 44.748 21.8875C46.6114 20.0235 49.1387 18.976 51.7743 18.9751H95.4672" stroke="black" stroke-width="2" stroke-miterlimit="5"/>
<path d="M85.7686 78.9279V28.9142C85.7686 26.278 86.8158 23.7499 88.6798 21.8858C90.5439 20.0218 93.0721 18.9746 95.7083 18.9746" stroke="black" stroke-width="2" stroke-miterlimit="5"/>
<path d="M105.41 29.8841C105.41 24.3947 100.96 18.9741 95.4707 18.9741" stroke="black" stroke-width="2" stroke-miterlimit="5"/>
<defs>
<linearGradient id="paint0_linear_3874_32797" x1="41.4202" y1="16.5321" x2="51.3315" y2="99.4062" gradientUnits="userSpaceOnUse">
<stop offset="0.313" stop-color="#009ADE"/>
<stop offset="0.538" stop-color="#1D70B7"/>
</linearGradient>
</defs>
</svg>
